{
  "accessors": [
    {
      "bufferView": 2,
      "componentType": 5126,
      "count": 8586,
      "max": [
        -0.0020699999295175076,
        0.022749999538064003,
        0.08532000333070755
      ],
      "min": [
        -0.04222999885678291,
        -0.022210000082850456,
        0.0786300003528595
      ],
      "type": "VEC3"
    },
    {
      "bufferView": 2,
      "byteOffset": 103032,
      "componentType": 5126,
      "count": 8586,
      "max": [
        0.9999999403953552,
        0.9997580647468567,
        1.0
      ],
      "min": [
        -0.9977846741676331,
        -1.0,
        -0.8921787738800049
      ],
      "type": "VEC3"
    },
    {
      "bufferView": 1,
      "componentType": 5126,
      "count": 8586,
      "max": [
        0.997763991355896,
        0.9956499934196472
      ],
      "min": [
        0.15101300179958344,
        0.597553014755249
      ],
      "type": "VEC2"
    },
    {
      "bufferView": 0,
      "componentType": 5125,
      "count": 45708,
      "type": "SCALAR"
    }
  ],
  "asset": {
    "extras": {
      "author": "Digital Archaeology Laboratory (https://sketchfab.com/digitalarch)",
      "license": "CC-BY-NC-SA-4.0 (http://creativecommons.org/licenses/by-nc-sa/4.0/)",
      "source": "https://sketchfab.com/3d-models/whiteware-sherd-hist-arch-student-scan-c1c698b8aecc45f19efea97dc930e938",
      "title": "Whiteware Sherd - Hist. Arch Student Scan"
    },
    "generator": "Sketchfab-15.5.0",
    "version": "2.0"
  },
  "bufferViews": [
    {
      "buffer": 0,
      "byteLength": 182832,
      "name": "floatBufferViews",
      "target": 34963
    },
    {
      "buffer": 0,
      "byteLength": 68688,
      "byteOffset": 182832,
      "byteStride": 8,
      "name": "floatBufferViews",
      "target": 34962
    },
    {
      "buffer": 0,
      "byteLength": 206064,
      "byteOffset": 251520,
      "byteStride": 12,
      "name": "floatBufferViews",
      "target": 34962
    }
  ],
  "buffers": [
    {
      "byteLength": 457584,
      "uri": "scene.bin"
    }
  ],
  "extensionsUsed": [
    "KHR_materials_unlit"
  ],
  "images": [
    {
      "uri": "textures/main_baseColor.jpeg"
    }
  ],
  "materials": [
    {
      "doubleSided": true,
      "extensions": {
        "KHR_materials_unlit": {}
      },
      "name": "main",
      "pbrMetallicRoughness": {
        "baseColorTexture": {
          "index": 0
        },
        "metallicFactor": 0.0
      }
    }
  ],
  "meshes": [
    {
      "name": "Object_0",
      "primitives": [
        {
          "attributes": {
            "NORMAL": 1,
            "POSITION": 0,
            "TEXCOORD_0": 2
          },
          "indices": 3,
          "material": 0,
          "mode": 4
        }
      ]
    }
  ],
  "nodes": [
    {
      "children": [
        1
      ],
      "matrix": [
        1.0,
        0.0,
        0.0,
        0.0,
        0.0,
        2.220446049250313e-16,
        -1.0,
        0.0,
        0.0,
        1.0,
        2.220446049250313e-16,
        0.0,
        0.0,
        0.0,
        0.0,
        1.0
      ],
      "name": "Sketchfab_model"
    },
    {
      "children": [
        2
      ],
      "name": "Scaniverse.obj.cleaner.materialmerger.gles"
    },
    {
      "mesh": 0,
      "name": "Object_2"
    }
  ],
  "samplers": [
    {
      "magFilter": 9729,
      "minFilter": 9987,
      "wrapS": 10497,
      "wrapT": 10497
    }
  ],
  "scene": 0,
  "scenes": [
    {
      "name": "Sketchfab_Scene",
      "nodes": [
        0
      ]
    }
  ],
  "textures": [
    {
      "sampler": 0,
      "source": 0
    }
  ]
}
